<svg width="158" height="158" viewBox="0 0 158 158" fill="none" xmlns="http://www.w3.org/2000/svg">
<path d="M78.9668 0L78.608 0C35.194 0 0 35.2044 0 78.6311L0 78.9901C0 122.417 35.194 157.621 78.608 157.621H78.9668C122.381 157.621 157.575 122.417 157.575 78.9901V78.6311C157.575 35.2044 122.381 0 78.9668 0Z" fill="#383D38"/>
<path d="M103.169 32.0676H54.4111C40.9408 32.0676 29.9824 43.0293 29.9824 56.5035L29.9824 101.123C29.9824 114.597 40.9408 125.559 54.4111 125.559H103.169C116.639 125.559 127.598 114.597 127.598 101.123V56.5035C127.598 43.0293 116.639 32.0676 103.169 32.0676ZM38.6001 56.5035C38.6001 47.7839 45.6941 40.6878 54.4111 40.6878H103.169C111.886 40.6878 118.98 47.7839 118.98 56.5035V101.123C118.98 109.843 111.886 116.939 103.169 116.939H54.4111C45.6941 116.939 38.6001 109.843 38.6001 101.123V56.5035Z" fill="white"/>
<path d="M78.7904 101.537C91.3166 101.537 101.513 91.3433 101.513 78.8078C101.513 66.2723 91.3221 56.0783 78.7904 56.0783C66.2586 56.0783 56.0675 66.2723 56.0675 78.8078C56.0675 91.3433 66.2586 101.537 78.7904 101.537ZM78.7904 64.704C86.5689 64.704 92.8955 71.0325 92.8955 78.8133C92.8955 86.5942 86.5689 92.9227 78.7904 92.9227C71.0118 92.9227 64.6852 86.5942 64.6852 78.8133C64.6852 71.0325 71.0118 64.704 78.7904 64.704Z" fill="white"/>
<path d="M103.616 59.7506C106.99 59.7506 109.739 57.006 109.739 53.6264C109.739 50.2468 106.995 47.5023 103.616 47.5023C100.238 47.5023 97.4941 50.2468 97.4941 53.6264C97.4941 57.006 100.238 59.7506 103.616 59.7506Z" fill="white"/>
</svg>
