<svg width="158" height="158" viewBox="0 0 158 158" fill="none" xmlns="http://www.w3.org/2000/svg">
<path d="M78.9668 0L78.608 0C35.194 0 0 35.2044 0 78.6311L0 78.9901C0 122.417 35.194 157.621 78.608 157.621H78.9668C122.381 157.621 157.575 122.417 157.575 78.9901V78.6311C157.575 35.2044 122.381 0 78.9668 0Z" fill="#383D38"/>
<path d="M116.877 57.0226V71.905C114.277 71.651 110.898 71.0602 107.161 69.6906C102.28 67.9014 98.6478 65.4551 96.2684 63.5609V93.6406L96.2077 93.5467C96.2463 94.1431 96.2684 94.7505 96.2684 95.3635C96.2684 110.301 84.1175 122.461 69.1787 122.461C54.24 122.461 42.0891 110.301 42.0891 95.3635C42.0891 80.4259 54.24 68.2604 69.1787 68.2604C70.6417 68.2604 72.0771 68.3763 73.4793 68.6027V83.2698C72.1323 82.7894 70.6859 82.5298 69.1787 82.5298C62.1068 82.5298 56.3489 88.284 56.3489 95.3635C56.3489 102.443 62.1068 108.197 69.1787 108.197C76.2507 108.197 82.0086 102.438 82.0086 95.3635C82.0086 95.0984 82.0031 94.8334 81.9866 94.5683V36.1154H96.8536C96.9088 37.3745 96.9585 38.6446 97.0137 39.9037C97.1131 42.3832 97.9963 44.7632 99.5366 46.7126C101.342 49.0043 104.008 51.666 107.751 53.7921C111.257 55.7746 114.547 56.6305 116.877 57.0337V57.0226Z" fill="white"/>
</svg>
