<?xml version="1.0" encoding="UTF-8"?><svg id="_レイヤー_2" xmlns="http://www.w3.org/2000/svg" viewBox="0 0 121.24 136.99"><defs><style>.cls-1{fill:#231815;}</style></defs><g id="_レイヤー_1-2"><path class="cls-1" d="M64.34,90.79s-1.34-.63-1.89-.12-.35.15-.5,1.64c-.15,1.49-1.21,9.12-1.17,14.25s.35,7.5.37,9.08.43,2.95,2.1,3.73,2.39.43,2.67.27.44-.02.55-.93.78-8.59,3.43-15.84c2.65-7.26,4.63-11.49,5.17-12.45s-.08-.87-.39-1.08-1.16-1.05-2.01.06-2.58,4.14-4.61,10.37-2.97,10.44-3.06,10.66-.56-.09-.52-.77.42-12.1,1.05-15.06.52-2.34.46-2.63-1.67-1.17-1.67-1.17Z"/><path class="cls-1" d="M90.07,100.77c.17-4.66-.55-8.08-4.3-9.03,0,0-1.95-.49-2.93.24,0,0-.37.2-.33-.1.03-.3-.36-.54-.36-.54,0,0-.35-.38-.56-.51s-.23-.47-1.28.39c-1.05.86-4.65,4.64-6.03,11.66-1.38,7.02-.54,11.16,1.07,13.69,1.61,2.54,5.03,4.91,8.86,1.5,3.83-3.41,5.7-12.64,5.87-17.3ZM86.95,99.16c-.47,5.63-2.12,12.21-4.69,15.24s-4.2,2.12-5.3-.75c-1.09-2.86.3-8.28.3-8.28.69.47,1.38.65,1.43.69.05.04.12-.2.12-.2.87-4.5,3.64-9.14,3.64-9.14,1.5-2.26,2.16-2.27,2.83-2.44.66-.17,2.14-.74,1.67,4.88Z"/><path class="cls-1" d="M101.44,85.56s-.5-.44-.92-.51-.74-.53-1.55,1.19-1.51,3.89-2.05,5.34c0,0-3.96.56-5.17,1.16,0,0-.79.07-.65.94s.97,1.85,1.5,2.22,1.52.07,1.52.07c0,0,1.05-.11,1.61-.24,0,0-2.09,7.49-2.61,11.58-.52,4.09-.41,8.01,1.62,10.12s3.86,3.35,7.7,1.34c3.84-2.01,5.26-5.12,5.07-6.72s-.85-2.19-1.42-2.29-.27.09-.45.59-1.7,4.24-5.82,5.32c-4.11,1.08-3.59-1.24-3.56-2.02s.71-6.58,1.77-10.23,2.26-7.82,2.44-8.34c0,0,5.27-.5,7.63-.47,0,0,1.54.23.71-1.28,0,0-.23-.72-.73-1.24s-.51-.29-.85-.35-.39-.12-.63-.47-.27-.43-1.13-.44-2.76.03-3.73.15c0,0,.74-2.48,1.15-3.44s-.22-.9-.4-1.12-.83-.65-1.06-.83Z"/><path class="cls-1" d="M121.23,109.26c-.13-2.19-.76-2.47-1.22-2.69-.46-.21-.74-.46-.82.77-.08,1.23-.77,4.54-2.22,6.12-1.45,1.58-3.9,4.31-6.81,1.34,0,0-1.79-1.7.09-8.92,0,0,1.95,3.85,5.32.95s3.78-13.44,1.29-15.05c0,0-2.63-3.01-5.65,1.69-3.02,4.71-4.26,11.01-4.49,14.92-.23,3.91.2,7.28,2.45,9.33,2.24,2.05,4.92,2.95,7.89.6,2.97-2.34,4.31-6.88,4.18-9.07ZM111.01,102.86c.65-2.85,2.76-8.44,2.76-8.44,1.43-3.16,1.47,1.03,1.47,1.03.21,6.84-2.27,9.26-2.66,9.54-.39.28-2.23.73-1.57-2.12Z"/><path class="cls-1" d="M4.35,92.52s-6.93,21.86-3.28,25.55c3.65,3.69,9.8-3.21,9.8-3.21,0,0,11.02-10.89,7.27-22.26,0,0,.31,9.94-5.28,16.85s-7.74,6.19-7.74,6.19c0,0-4.73-.85,1.88-19.18,0,0,1.25-3.52,1.49-3.99.15-.28-.58-.67-.58-.67,0,0-1.29-.89-2.3-1.11,0,0-.34-.13-.77-.06l-.48,1.9Z"/><path class="cls-1" d="M14.15,92.83s-5.87,27.96-6.59,33.32c-.71,5.36-1.51,8.27-.95,8.87s2.23,1.71,3.14,1.94c.62.16.54-.32.54-.32,0,0,2.79-22.66,7.32-41.39,0,0,.36-1.34.57-2.28,0,0,.11-.32-.11-.46s-2.94-1.35-3.41-1.25c0,0-.2-.08-.27.09s.03.25-.23,1.48Z"/><path class="cls-1" d="M24.47,103.37s2.82,6.15,5.2-2.26c0,0,1.13-2.74.14-6.85s-4.35,6.09-5.89,14.47c0,0-1.37,8.9,3.99,6.93,5.36-1.96,5.66-8.51,5.66-8.51,0,0-.24-1.4,1.01.03,0,0,1.63,3.19-2.06,8.73-3.69,5.54-7.88,3.49-7.88,3.49,0,0-8.47-1.61-3.15-18.77,0,0,3.31-9.58,7.48-9.58,0,0,5.44-.22,4.25,10.81-1.19,11.03-8.69,4.84-9.64,2.34-.95-2.5.91-.83.91-.83Z"/><path class="cls-1" d="M41.97,80.95s-4.03,22.52-4.75,27.88-1.51,8.27-.95,8.87,2.23,1.71,3.14,1.94c.62.16.54-.32.54-.32,0,0,1.72-16.12,5.48-35.95,0,0,.36-1.34.57-2.28,0,0,.11-.32-.11-.46s-2.94-1.35-3.41-1.25c0,0-.2-.08-.27.09s.03.25-.23,1.48Z"/><path class="cls-1" d="M51.91,80.95s-4.03,22.52-4.75,27.88c-.71,5.36-1.51,8.27-.95,8.87s2.23,1.71,3.14,1.94c.62.16.54-.32.54-.32,0,0,1.72-16.12,5.48-35.95,0,0,.36-1.34.57-2.28,0,0,.11-.32-.11-.46s-2.94-1.35-3.41-1.25c0,0-.2-.08-.27.09s.03.25-.23,1.48Z"/><path class="cls-1" d="M36.27,117.69s-2.72-2.33,2.16-13.52c4.88-11.19,9.09-11.9,13.65-24.28,0,0-.1-.61.32-.51,0,0,.45.03,1.02.24l.78.92s-7.73,13.63-10.47,20.6c-4.34,11.04-4.56,18.43-4.56,18.43"/><path class="cls-1" d="M41.7,56.48s-.02-.01-.03-.02c.32.24.65.57.08.55.41.05.75,0-.06-.53Z"/><path class="cls-1" d="M41.33,56.23c-1.88-1.32-3.38-2.9-4.64-4.93-.47.13-.91.26-1.33.39.98,1.25,2.05,2.39,3.16,3.35.9.5,1.84.91,2.81,1.18,0,0,0,0,0,0Z"/><path class="cls-1" d="M33,42.08c-.03-.12-.07-.25-.1-.37-.75.5-1.45.97-2.1,1.41.75,2.49,2.07,5.1,3.7,7.43.53-.14,1.07-.26,1.53-.37-1.18-2.17-2.15-4.81-3.04-8.1Z"/><path class="cls-1" d="M31.13,36.83s-.32-.08-.76-.13c-.04.19-.08.38-.12.59-.24,1.33-.15,2.85.2,4.46.73-.39,1.46-.79,2.18-1.2-.89-4.17-.17-6.33,1.95-6.08,0-.38.04-.77.09-1.16-1.15-.32-3.18-.36-4.15,2.84.35.11.5.25.5.25l.11.44Z"/><path class="cls-1" d="M37.41,40.46c-.18-.37-.34-.87-.47-1.45-.33.22-.65.44-.97.65.4.71.89,1.42,1.44,2.13,0,0,.91.51,0-1.33Z"/><path class="cls-1" d="M34.87,34.52c-.1-.02-.2-.04-.3-.05-.03,1.55.31,2.98.96,4.36.41-.25.81-.5,1.22-.75-.37-2.27-.37-5.14.24-6.18.79-1.33,2.18-1.88,3.01-1.4.23-.79.56-1.48.99-2.09-1.18-.24-4.79-.68-5.86,2.81-.22.73-.38,1.42-.46,2.09.5.14.83.33.83.33,1.54,1.27-.62.88-.62.88Z"/><path class="cls-1" d="M34.87,34.52s2.17.39.62-.88c0,0-.33-.19-.83-.33-.05.4-.08.78-.09,1.16.1.01.19.03.3.05Z"/><path class="cls-1" d="M40.27,30.7c-.08-.08-.17-.15-.27-.2-.28.98-.4,2.11-.29,3.4.06.73.18,1.41.33,2.03.41-.28.82-.56,1.23-.84-.29-2.28-.17-4.72,1.19-5.81,1.92-1.53,3.38-1.25,4.07-.95.1-.36.21-.73.33-1.11.1-.31.22-.59.34-.84-.77-.5-2.23-1.12-3.83-.16-.94.56-1.76,1.29-2.4,2.2.24.05.38.09.38.09.24,1.71-1.1,2.2-1.1,2.2Z"/><path class="cls-1" d="M42.58,40.73s.55.11-.04-.84c-.25-.41-.8-2.02-1.13-3.89-.38.26-.76.52-1.14.77.69,2.21,1.78,3.62,2.31,3.97Z"/><path class="cls-1" d="M40.27,30.7s1.34-.5,1.1-2.2c0,0-.14-.04-.38-.09-.42.61-.76,1.3-.99,2.09.1.06.19.12.27.2Z"/><path class="cls-1" d="M48.24,38.89s.48.51.11-.42c-.25-.62-.64-3.94-.5-6.86-.59.41-1.19.82-1.78,1.22.16,3.11,1.31,5.4,2.17,6.07Z"/><path class="cls-1" d="M46.99,28.58s-.16-.13-.44-.25c-.3,1.15-.45,2.26-.49,3.29.65-.49,1.28-.98,1.91-1.48.11-.87.29-1.65.56-2.22.94-1.98,2.14-2.22,3.84-1.44.03-.08.05-.12.05-.12l.13-.42.46.07c.44-.38.87-.75,1.3-1.12-.9-.51-5.11-2.59-7.08,1.5.36.23.57.44.57.44.4.95-.81,1.76-.81,1.76Z"/><path class="cls-1" d="M46.55,28.32c.29.12.44.25.44.25,0,0,1.21-.81.81-1.76,0,0-.21-.21-.57-.44-.12.26-.24.54-.34.84-.13.37-.24.74-.33,1.11Z"/><path class="cls-1" d="M41.33,56.23c.11.08.23.16.34.23-.17-.12-.32-.22-.34-.23Z"/><path class="cls-1" d="M37.76,55.41s2.26,1.25,1.32.98c.59.19.94.27.94.27.91.25,1.45.35,1.75.36-.29-.04-.61-.12-.61-.12-.89-.49-1.77-1.12-2.63-1.85-1.46-.82-2.82-1.89-4.05-3.06-.87.3-1.63.59-2.28.87,1.64,1.23,3.31,2.11,4.68,2.71-.38-.44.88-.15.88-.15Z"/><path class="cls-1" d="M27.75,37.72c.46-1.04,1.77-1.09,2.62-1.01.05-.2.1-.38.15-.56-.52-.16-1.49-.26-3.14.25-2.75.84-1.93,5.46-1.93,5.46.11.76.27,1.48.47,2.17.71-.33,1.42-.67,2.12-1.03-.73-2.22-.75-4.26-.3-5.28Z"/><path class="cls-1" d="M41.68,56.46c-.11-.08-.23-.15-.34-.23,0,0,0,0,0,0-.97-.27-1.91-.68-2.81-1.18.85.73,1.74,1.36,2.63,1.85,0,0,.32.08.61.12.57.01.23-.31-.08-.55Z"/><path class="cls-1" d="M31.13,36.83l-.11-.44s-.15-.14-.5-.25c-.05.18-.1.36-.15.56.44.04.76.13.76.13Z"/><path class="cls-1" d="M54.11,26.16l.37.05s-.02.23-.19.9c5.23-3.7,10.05-7.27,13.3-10.03,0,0,3.24-8.87,1.43-6.83,0,0-5.66,6.7-14.71,14.62.11.06.17.1.17.1,0,0-.11.64-.37,1.18Z"/><path class="cls-1" d="M27.13,51.7c-1.76-2.2-1.95-4.16-1.14-5.18.06-.08.29-.25.65-.52-.27-.62-.51-1.28-.71-1.97-.43.2-.86.4-1.3.59,0,0-3.05,3.08-.29,6.57,0,0,1.19,1.73,2.75,2.29,1.56.57,1.06.61,1.69.88.21.09,1.27-.61,3.42-1.51-.37-.28-.73-.57-1.09-.88-1.18.72-2.65,1.39-3.98-.27Z"/><path class="cls-1" d="M30.45,41.75c-.79.43-1.59.84-2.4,1.24.17.52.38,1.05.63,1.57.62-.42,1.34-.91,2.13-1.44-.14-.46-.26-.92-.36-1.37Z"/><path class="cls-1" d="M56.54,49.58c.55.03,1.11.07,1.68.11,21.03,1.54,26.1,5.29,26.1,5.29l-7.05-5.95s-9.19-1.29-20.82-1.07c.08.55.1,1.09.09,1.62Z"/><path class="cls-1" d="M34.51,50.55c-.39.1-.79.21-1.14.32.36.38.73.75,1.11,1.11.28-.1.58-.19.88-.29-.29-.37-.57-.75-.85-1.14Z"/><path class="cls-1" d="M32.91,41.72c-.11-.4-.2-.79-.28-1.17-.72.41-1.45.81-2.18,1.2.1.45.22.91.36,1.37.65-.44,1.35-.91,2.1-1.41Z"/><path class="cls-1" d="M34.51,50.55c.27.39.56.77.85,1.14.42-.13.87-.26,1.33-.39-.22-.36-.44-.73-.65-1.12-.46.1-1,.23-1.53.37Z"/><path class="cls-1" d="M36.93,39.01c-.07-.29-.13-.61-.18-.93-.4.25-.81.5-1.22.75.13.28.27.55.43.83.32-.21.64-.43.97-.65Z"/><path class="cls-1" d="M41.42,35.99c-.05-.3-.1-.6-.14-.9-.41.28-.82.56-1.23.84.07.29.15.56.23.83.38-.25.76-.51,1.14-.77Z"/><path class="cls-1" d="M54.11,26.16c.26-.54.37-1.18.37-1.18,0,0-.06-.04-.17-.1-.43.37-.86.75-1.3,1.12l1.1.16Z"/><path class="cls-1" d="M46.07,32.82c.59-.4,1.18-.81,1.78-1.22.02-.51.06-1,.12-1.47-.63.49-1.26.98-1.91,1.48-.01.42-.01.82,0,1.21Z"/><path class="cls-1" d="M33.37,50.87c-.49.15-.92.31-1.21.46-.31.16-.67.4-1.05.64.36.31.72.6,1.09.88.66-.28,1.42-.57,2.28-.87-.38-.36-.75-.74-1.11-1.11Z"/><path class="cls-1" d="M28.68,44.57c-.25-.53-.46-1.06-.63-1.57-.7.35-1.41.69-2.12,1.03.2.69.44,1.35.71,1.97.46-.34,1.16-.82,2.04-1.43Z"/><path class="cls-1" d="M54.12,56.32c.13.9.43,2.95.58,3.38.19.55-3.23,5.03-9.03,5.51-5.8.48-10.72-2.31-10.21-3.89.51-1.58,1.94-1.91,1.94-1.91,0,0,2.08-.39,3.53.2,0,0,.64.18.04-.31,0,0-.95-.63-2.18-.94-.05,0-2.87.22-1.65-.15-1.02.1-2.03.62-2.74,1.97-2.06,3.89,2.72,5.51,4.15,6.13s10.92,3,16.98-4.06c0,0,2.04-2.16.41-4.06,0,0-.83-.93-.83-3.47-.32.6-.65,1.14-.98,1.6Z"/><path class="cls-1" d="M38.79,58.36s0,0,0,0c0,0-.65-2.24.29-1.97,0,0,0,0,0,0-.55-.18-1.31-.45-2.2-.83,0,0,0,0,0,0,0,0,1.5,2.28.26,2.65,0,0,0,0,0,0,.56-.06,1.13.02,1.65.15Z"/><path class="cls-1" d="M37.76,55.41s-1.25-.29-.88.15c.89.38,1.65.65,2.2.83.93.27-1.32-.98-1.32-.98Z"/><path class="cls-1" d="M38.79,58.36c-.52-.13-1.08-.2-1.65-.15-1.22.36,1.6.15,1.65.15Z"/><path class="cls-1" d="M52.42,26.5s-.03-.01-.05-.02c-.01.03-.02.06-.04.09.03-.02.06-.05.08-.07Z"/><path class="cls-1" d="M51.83,39.03c1.5,4.37,2.63,6.28,2.71,8.97.64-.02,1.28-.04,1.9-.05-.11-.8-.33-1.62-.69-2.46-2.64-6.13-3.42-12.36-2.39-15.42.49-1.43.76-2.37.91-2.97-.89.63-1.78,1.26-2.69,1.89-.58,2.45-1.06,6.27.23,10.03Z"/><path class="cls-1" d="M54.04,52.16s-.73,3.63-1.95,4.87c-1.21,1.24-.61,1.96.46,1.1.31-.24.92-.88,1.57-1.81-.04-.26-.06-.42-.06-.42l1.05-1.68c0,.17,0,.34,0,.5.75-1.43,1.38-3.2,1.44-5.15-.7-.04-1.38-.07-2.04-.09-.07.78-.22,1.66-.46,2.67Z"/><path class="cls-1" d="M53.01,26l-.46-.07-.13.42s-.02.05-.05.12c.02,0,.03.01.05.02.2-.17.39-.34.59-.5Z"/><path class="cls-1" d="M54.11,26.16c-.24.5-.62.91-1.15.62-.18-.1-.36-.19-.53-.28-.03.02-.06.05-.08.07-.15.38-.45,1.24-.73,2.43.9-.63,1.8-1.26,2.69-1.89.17-.67.19-.9.19-.9l-.37-.05Z"/><path class="cls-1" d="M54.5,49.49c.67.02,1.35.05,2.04.09.02-.53-.01-1.07-.09-1.62-.63.01-1.26.03-1.9.05.02.47,0,.95-.05,1.48Z"/><path class="cls-1" d="M52.95,26.78c.54.3.91-.11,1.15-.62l-1.1-.16c-.19.17-.39.33-.59.5.17.08.35.17.53.28Z"/><path class="cls-1" d="M54.06,55.91s.02.16.06.42c.33-.46.66-1,.98-1.6,0-.16,0-.32,0-.5l-1.05,1.68Z"/><path class="cls-1" d="M40.68,49.21s-1.43-2.91-1.94-4.33c-.47-1.29-.48.37-.48.37,0,0-.44,3.2,1.69,4.16,0,0,.01,0,.02,0,.27-.05.53-.09.8-.13-.05-.05-.09-.08-.09-.08Z"/><path class="cls-1" d="M40.77,49.29c-.27.04-.53.09-.8.13,1.77.79,1.07.11.8-.13Z"/><path class="cls-1" d="M45.54,49.87s.61.35.45-.18c-.21.02-.42.04-.62.06.06.04.11.08.17.12Z"/><path class="cls-1" d="M45.43,48.64c-1.27-1.91-1.75-3.61-1.86-4.84-.12-1.22-.99-.79-1.14.11,0,0-.56,2.46,1.83,4.88.39-.05.79-.1,1.18-.14,0,0,0,0,0,0Z"/><path class="cls-1" d="M44.25,48.79c.32.32.69.64,1.13.96.21-.02.41-.04.62-.06-.06-.2-.22-.53-.57-1.04-.39.04-.79.09-1.18.14Z"/><path class="cls-1" d="M49.27,46.53c1.49,1.67.58.22.28-1.1-.3-1.32-.72-2.89-.74-3.77-.03-.88-.63.08-.66.58,0,0-.36,2.63,1.13,4.3Z"/><path class="cls-1" d="M94.23,16.02s-3.89-22.76-18.28-14.02c-14.39,8.74-9.84,28.71-5.29,37.96,4.55,9.25,12.63,20.12,22.1,13l.81-4.04s-11.87,10.64-20.37-9.42c-8.5-20.06.26-33.9,5.03-35.81,4.77-1.91,11.67-1.03,14.17,12.33,0,0,.15.95-.62,1.62s-1.25.97-1.41,1.08.72,1.69.72,1.69c0,0,2.44-1.6,2.88-2.04s.57-.96.28-2.35Z"/><path class="cls-1" d="M66.29,18.8s2.32-20.72,18.03-8.85c15.71,11.87,14.74,31.62,12.41,36.98-1.83,4.2-3.96,6.02-3.96,6.02l-1.62-.34-1.57-1.46s4.21-.6,5.61-12.44c1.42-12.09-6.55-25.09-15.25-28.81-8.7-3.72-9.76,7.34-9.76,7.34l-3.88,1.56Z"/><path class="cls-1" d="M70.39,35.31s3.87-1.83,7.32-5.12c3.53-3.36,3.52-4.13,5.07-4.52s3.19,1.21,2.53,2.64-5.18,22.78,1.75,23.37c6.68.57-.6,2.53-.6,2.53l-3.41-1.61s-5.19-5.22-1.06-23.8c0,0,.23-.17-4.39,3.96-4.63,4.13-5.73,5.23-6.44,5.56s-.77-3.03-.77-3.03Z"/><path class="cls-1" d="M68.36,30.55s-4.27,2.12-4.88,2.57-.28,1.15.31.91,2.55-1.45,4.65-2.19c2.09-.74-.08-1.29-.08-1.29Z"/><path class="cls-1" d="M70.13,37.02s-3.63,1.4-6.19,2.05-.66,1.14.19.83,5.55-1.03,6.47-1.69-.48-1.2-.48-1.2Z"/><path class="cls-1" d="M72.68,42.39s-5.01.72-8.87.99c-3.85.28-1.32,1.02.17.91,1.49-.11,7.82-.36,9.25-.66s-.55-1.24-.55-1.24Z"/><path class="cls-1" d="M75,45.92s-6.35.21-11.89,0c-5.54-.21-2.64,1.07-.62,1.07s11.49.06,13.84.27-1.32-1.34-1.32-1.34Z"/><path class="cls-1" d="M78.6,8.33s-6.88,4.63-10.13,7.43c0,0,4.18-5.51,7.43-7.43,3.25-1.93,2.7,0,2.7,0Z"/><path class="cls-1" d="M80.04,8.5s-7.27,5.33-10.77,8.1c-3.5,2.77-.32,1.75.02,1.15s10.92-7.68,12.19-8.34-.91-1.3-1.45-.91Z"/><path class="cls-1" d="M83.44,9.9s-4.9,4.34-7.79,6.25c-2.89,1.91-.62,1.73.76.76s5.49-4,8.14-5.73l-.34-.73-.78-.55Z"/><path class="cls-1" d="M86.82,14.07s-3.39,2.68-6.52,4.74c-3.13,2.06-.31,1.54.57.92s4.44-2.97,6.83-4.22v-1.14l-.88-.29Z"/><path class="cls-1" d="M90.44,18.85s-2.39,1.56-6.11,3.4c-3.72,1.85-.6,1.47.52.98s5.4-2.37,6.39-2.94c.99-.57-.26-1.78-.8-1.44Z"/><path class="cls-1" d="M78.01,2.95l-1.95,2.51s-.74.94.44.3c0,0,2.56-2.42,3.28-3.06s-1.29-.22-1.29-.22l-.48.46Z"/><path class="cls-1" d="M88.48,5.6s-2.37,2.48-3.06,3.08-.33.94.39.52,2.97-2.34,3.83-2.31-1.16-1.29-1.16-1.29Z"/><path class="cls-1" d="M85.21,2.69s-2.75,2.71-3.26,3.27-.36,1.01.45.5,4.22-2.91,4.22-2.91c0,0-.3-1.24-1.4-.86Z"/><path class="cls-1" d="M81.74,2.22s-2.4,2.81-2.65,3.14-.14.85.47.44,3.33-3,3.83-3.3-1.17-.83-1.64-.28Z"/><path class="cls-1" d="M91.32,10.92s-1.93,1.34-2.29,1.64-.55.93.36.58,2.59-1.06,2.59-1.06c0,0,.5-.95-.66-1.16Z"/><path class="cls-1" d="M93.35,25.01s-5.62,2.5-7.1,3.33-1.14,1.34.37.83,6.3-2.43,7.29-2.62.49-1.54.49-1.54h-1.04Z"/><path class="cls-1" d="M95.28,31.96s-4.62,1.4-6.55,1.99-1.22,1.4.33.9c1.54-.5,5.34-.99,6.66-1.37s.06-1.67-.44-1.52Z"/><path class="cls-1" d="M96.05,38.51s-5.18.77-6.77,1.1-1.65,1.05,0,.94,5.45-.33,6.77-.28,0-1.76,0-1.76Z"/></g></svg>