<?xml version="1.0" encoding="UTF-8"?><svg id="_レイヤー_2" xmlns="http://www.w3.org/2000/svg" viewBox="0 0 225.29 68.06"><defs><style>.cls-1{fill:#231815;}</style></defs><g id="_レイヤー_1-2"><path class="cls-1" d="M161.42,16.2s-1.5-.71-2.12-.14-.4.17-.56,1.84-1.36,10.23-1.31,16c.05,5.77.39,8.42.42,10.2s.49,3.31,2.35,4.18,2.68.48,2.99.31.5-.02.62-1.04.87-9.64,3.85-17.79c2.98-8.15,5.19-12.9,5.8-13.98s-.09-.97-.43-1.22-1.3-1.18-2.25.07-2.9,4.65-5.17,11.64c-2.28,6.99-3.33,11.72-3.43,11.96s-.63-.1-.58-.87.47-13.58,1.18-16.91.58-2.63.52-2.95-1.87-1.32-1.87-1.32Z"/><path class="cls-1" d="M190.3,27.4c.19-5.23-.62-9.08-4.83-10.13,0,0-2.18-.55-3.29.26,0,0-.41.22-.38-.11.04-.34-.4-.61-.4-.61,0,0-.39-.42-.63-.57s-.25-.52-1.44.44c-1.18.96-5.22,5.21-6.77,13.09-1.55,7.88-.61,12.53,1.2,15.37,1.81,2.85,5.65,5.51,9.95,1.68,4.3-3.83,6.4-14.19,6.59-19.42ZM186.79,25.6c-.53,6.31-2.38,13.71-5.26,17.11s-4.72,2.38-5.94-.84.33-9.3.33-9.3c.77.52,1.55.73,1.61.77.06.04.13-.22.13-.22.98-5.05,4.08-10.26,4.08-10.26,1.68-2.54,2.43-2.55,3.17-2.74.75-.19,2.4-.83,1.88,5.48Z"/><path class="cls-1" d="M203.06,10.33s-.57-.5-1.03-.58-.83-.6-1.74,1.34-1.7,4.37-2.3,5.99c0,0-4.44.63-5.8,1.3,0,0-.89.08-.72,1.06s1.08,2.08,1.68,2.49,1.7.08,1.7.08c0,0,1.18-.12,1.81-.27,0,0-2.35,8.4-2.93,13-.59,4.6-.46,8.99,1.82,11.36,2.28,2.37,4.34,3.76,8.65,1.5,4.31-2.25,5.91-5.74,5.69-7.55s-.95-2.46-1.59-2.57-.31.1-.51.66-1.91,4.76-6.53,5.97c-4.62,1.21-4.03-1.39-3.99-2.27s.8-7.38,1.98-11.48c1.18-4.1,2.54-8.78,2.74-9.36,0,0,5.91-.56,8.56-.53,0,0,1.73.25.8-1.44,0,0-.26-.81-.82-1.39s-.57-.32-.95-.4-.44-.14-.71-.53-.3-.48-1.27-.5-3.09.04-4.19.17c0,0,.83-2.79,1.29-3.86s-.25-1.01-.44-1.26-.93-.73-1.19-.94Z"/><path class="cls-1" d="M225.28,36.94c-.14-2.45-.85-2.78-1.37-3.02-.51-.24-.83-.52-.92.87-.09,1.38-.86,5.1-2.49,6.87-1.63,1.77-4.38,4.84-7.65,1.5,0,0-2.01-1.91.1-10.01,0,0,2.19,4.33,5.97,1.06,3.78-3.26,4.24-15.09,1.44-16.89,0,0-2.95-3.38-6.34,1.9-3.39,5.28-4.78,12.36-5.04,16.75-.26,4.39.23,8.17,2.75,10.47,2.52,2.3,5.52,3.31,8.86.68,3.34-2.63,4.83-7.73,4.69-10.18ZM213.8,29.75c.73-3.2,3.1-9.48,3.1-9.48,1.6-3.55,1.66,1.16,1.66,1.16.23,7.68-2.55,10.39-2.99,10.71-.44.31-2.5.82-1.77-2.38Z"/><path class="cls-1" d="M94.06,18.14s-7.78,24.54-3.69,28.68,11-3.61,11-3.61c0,0,12.37-12.23,8.16-24.99,0,0,.35,11.16-5.93,18.91-6.28,7.75-8.69,6.95-8.69,6.95,0,0-5.31-.95,2.1-21.53,0,0,1.4-3.96,1.67-4.48.16-.31-.65-.76-.65-.76,0,0-1.45-1-2.58-1.25,0,0-.38-.15-.86-.07l-.54,2.14Z"/><path class="cls-1" d="M105.07,18.49s-6.59,31.38-7.4,37.4c-.8,6.01-1.69,9.29-1.07,9.96s2.5,1.92,3.52,2.18c.7.18.61-.36.61-.36,0,0,3.13-25.44,8.21-46.46,0,0,.4-1.51.64-2.56,0,0,.12-.36-.12-.52s-3.3-1.51-3.83-1.4c0,0-.23-.09-.3.1s.03.28-.26,1.66Z"/><path class="cls-1" d="M116.66,30.33s3.16,6.91,5.84-2.54c0,0,1.27-3.07.16-7.68s-4.88,6.84-6.62,16.24c0,0-1.54,9.99,4.48,7.78s6.35-9.56,6.35-9.56c0,0-.27-1.57,1.14.03,0,0,1.83,3.58-2.31,9.8-4.14,6.21-8.85,3.92-8.85,3.92,0,0-9.51-1.8-3.54-21.07,0,0,3.72-10.76,8.4-10.76,0,0,6.1-.25,4.77,12.14-1.34,12.38-9.76,5.43-10.83,2.63-1.07-2.81,1.02-.94,1.02-.94Z"/><path class="cls-1" d="M136.3,5.16s-4.53,25.28-5.33,31.29c-.8,6.01-1.69,9.29-1.07,9.96s2.5,1.92,3.52,2.18c.7.18.61-.36.61-.36,0,0,1.93-18.1,6.15-40.36,0,0,.4-1.51.64-2.56,0,0,.12-.36-.12-.52s-3.3-1.51-3.83-1.4c0,0-.23-.09-.3.1s.03.28-.26,1.66Z"/><path class="cls-1" d="M147.45,5.16s-4.53,25.28-5.33,31.29c-.8,6.01-1.69,9.29-1.07,9.96s2.5,1.92,3.52,2.18c.7.18.61-.36.61-.36,0,0,1.93-18.1,6.15-40.36,0,0,.4-1.51.64-2.56,0,0,.12-.36-.12-.52s-3.3-1.51-3.83-1.4c0,0-.23-.09-.3.1s.03.28-.26,1.66Z"/><path class="cls-1" d="M129.91,46.4s-3.05-2.62,2.43-15.18c5.48-12.56,10.2-13.36,15.32-27.26,0,0-.12-.69.36-.57,0,0,.5.03,1.14.27l.88,1.03s-8.68,15.3-11.75,23.12c-4.87,12.4-5.12,20.69-5.12,20.69"/><path class="cls-1" d="M17.51,53.41s-.02-.01-.03-.02c.3.22.62.54.08.52.39.05.71,0-.05-.5Z"/><path class="cls-1" d="M17.16,53.17c-1.77-1.25-3.19-2.74-4.39-4.66-.44.12-.86.25-1.26.37.93,1.18,1.94,2.26,2.99,3.16.85.48,1.74.86,2.65,1.12,0,0,0,0,0,0Z"/><path class="cls-1" d="M9.28,39.8c-.03-.12-.06-.23-.09-.35-.71.47-1.37.92-1.98,1.33.71,2.36,1.95,4.82,3.5,7.02.5-.13,1.01-.25,1.45-.35-1.11-2.05-2.03-4.55-2.88-7.66Z"/><path class="cls-1" d="M7.51,34.83s-.3-.08-.72-.12c-.04.18-.08.36-.12.55-.23,1.26-.14,2.7.19,4.22.69-.37,1.38-.75,2.06-1.14-.84-3.94-.16-5.99,1.84-5.75,0-.36.04-.73.08-1.1-1.08-.3-3.01-.34-3.92,2.68.33.1.47.23.47.23l.1.42Z"/><path class="cls-1" d="M13.45,38.26c-.17-.35-.32-.82-.45-1.37-.31.21-.62.41-.92.62.38.67.84,1.34,1.36,2.01,0,0,.86.49,0-1.26Z"/><path class="cls-1" d="M11.05,32.65c-.1-.02-.19-.03-.28-.05-.03,1.47.29,2.82.9,4.12.39-.24.77-.47,1.15-.71-.35-2.14-.35-4.86.23-5.85.75-1.26,2.06-1.78,2.85-1.32.21-.74.53-1.4.93-1.98-1.12-.23-4.53-.64-5.54,2.65-.21.69-.35,1.34-.44,1.98.47.13.79.31.79.31,1.46,1.2-.59.83-.59.83Z"/><path class="cls-1" d="M11.05,32.65s2.05.36.59-.83c0,0-.31-.18-.79-.31-.05.37-.08.74-.08,1.1.09.01.18.02.28.05Z"/><path class="cls-1" d="M16.16,29.03c-.07-.08-.16-.14-.25-.19-.27.93-.37,2-.27,3.21.06.69.17,1.33.31,1.92.39-.26.78-.53,1.16-.8-.28-2.15-.17-4.47,1.13-5.5,1.81-1.45,3.2-1.18,3.85-.9.09-.35.19-.69.32-1.05.1-.29.21-.55.33-.8-.73-.47-2.11-1.06-3.62-.15-.89.53-1.67,1.22-2.27,2.08.22.05.36.09.36.09.23,1.61-1.04,2.08-1.04,2.08Z"/><path class="cls-1" d="M18.34,38.51s.52.1-.03-.8c-.24-.39-.76-1.91-1.07-3.68-.36.25-.72.49-1.08.73.65,2.09,1.68,3.42,2.18,3.75Z"/><path class="cls-1" d="M16.16,29.03s1.27-.47,1.04-2.08c0,0-.13-.04-.36-.09-.4.58-.72,1.23-.93,1.98.09.05.18.11.25.19Z"/><path class="cls-1" d="M23.69,36.78s.45.49.1-.4c-.23-.59-.6-3.73-.47-6.49-.56.39-1.12.77-1.68,1.15.15,2.94,1.24,5.1,2.05,5.74Z"/><path class="cls-1" d="M22.51,27.02s-.15-.12-.42-.24c-.29,1.09-.43,2.13-.46,3.11.61-.46,1.21-.93,1.8-1.4.11-.83.28-1.56.53-2.1.89-1.87,2.02-2.1,3.63-1.36.03-.07.05-.12.05-.12l.12-.4.43.06c.42-.36.82-.71,1.23-1.06-.85-.48-4.83-2.45-6.7,1.42.34.22.54.41.54.41.38.9-.76,1.67-.76,1.67Z"/><path class="cls-1" d="M22.09,26.78c.27.12.42.24.42.24,0,0,1.15-.76.76-1.67,0,0-.2-.19-.54-.41-.12.24-.23.51-.33.8-.12.35-.23.7-.32,1.05Z"/><path class="cls-1" d="M17.16,53.17c.11.07.21.15.32.22-.16-.12-.31-.21-.32-.22Z"/><path class="cls-1" d="M13.78,52.4s2.13,1.18,1.25.93c.56.18.88.25.88.25.86.24,1.37.33,1.65.34-.27-.03-.57-.11-.57-.11-.84-.46-1.68-1.06-2.48-1.75-1.38-.77-2.67-1.79-3.83-2.89-.82.28-1.54.56-2.16.82,1.55,1.17,3.13,1.99,4.43,2.56-.36-.41.83-.14.83-.14Z"/><path class="cls-1" d="M4.32,35.67c.43-.98,1.67-1.03,2.48-.95.04-.19.09-.36.14-.53-.49-.15-1.41-.24-2.97.23-2.6.8-1.82,5.17-1.82,5.17.11.72.26,1.4.44,2.05.67-.31,1.34-.64,2.01-.97-.69-2.1-.71-4.03-.28-5Z"/><path class="cls-1" d="M17.48,53.4c-.11-.07-.22-.15-.32-.22,0,0,0,0,0,0-.92-.26-1.8-.64-2.65-1.12.81.69,1.64,1.29,2.48,1.75,0,0,.3.08.57.11.54.01.22-.3-.08-.52Z"/><path class="cls-1" d="M7.51,34.83l-.1-.42s-.14-.13-.47-.23c-.05.17-.1.34-.14.53.42.04.72.12.72.12Z"/><path class="cls-1" d="M29.24,24.74l.35.05s-.02.22-.18.85c4.94-3.49,9.5-6.87,12.57-9.48,0,0,3.07-8.39,1.35-6.46,0,0-5.35,6.34-13.91,13.82.1.06.16.1.16.1,0,0-.1.61-.35,1.12Z"/><path class="cls-1" d="M3.73,48.89c-1.67-2.08-1.84-3.94-1.08-4.9.06-.07.27-.24.61-.49-.26-.59-.48-1.21-.67-1.87-.41.19-.82.38-1.23.56,0,0-2.88,2.92-.28,6.21,0,0,1.13,1.63,2.6,2.17,1.48.54,1.01.57,1.6.83.2.09,1.2-.58,3.23-1.43-.35-.26-.69-.54-1.03-.83-1.11.68-2.51,1.31-3.76-.26Z"/><path class="cls-1" d="M6.87,39.48c-.75.4-1.51.79-2.27,1.18.16.49.36.99.59,1.49.59-.4,1.26-.86,2.01-1.37-.13-.44-.25-.87-.34-1.3Z"/><path class="cls-1" d="M31.54,46.88c.52.03,1.05.06,1.59.1,19.89,1.46,24.68,5,24.68,5l-6.67-5.62s-8.69-1.22-19.69-1.01c.07.52.1,1.03.08,1.53Z"/><path class="cls-1" d="M10.71,47.81c-.37.1-.74.2-1.08.3.34.36.69.71,1.05,1.05.27-.09.55-.18.83-.27-.28-.35-.54-.71-.8-1.08Z"/><path class="cls-1" d="M9.19,39.45c-.1-.38-.19-.75-.26-1.1-.68.39-1.37.77-2.06,1.14.09.43.21.86.34,1.3.61-.41,1.28-.86,1.98-1.33Z"/><path class="cls-1" d="M10.71,47.81c.26.37.53.73.8,1.08.4-.13.82-.25,1.26-.37-.21-.34-.42-.69-.61-1.06-.44.1-.95.22-1.45.35Z"/><path class="cls-1" d="M13,36.89c-.06-.28-.12-.57-.17-.88-.38.24-.76.48-1.15.71.12.26.26.52.4.78.3-.2.61-.41.92-.62Z"/><path class="cls-1" d="M17.24,34.03c-.05-.28-.09-.56-.13-.85-.39.27-.77.53-1.16.8.07.27.14.53.22.78.36-.24.72-.48,1.08-.73Z"/><path class="cls-1" d="M29.24,24.74c.25-.51.35-1.12.35-1.12,0,0-.06-.04-.16-.1-.4.35-.81.71-1.23,1.06l1.04.15Z"/><path class="cls-1" d="M21.64,31.04c.56-.38,1.12-.77,1.68-1.15.02-.48.06-.95.12-1.39-.59.47-1.19.93-1.8,1.4-.01.39-.01.78,0,1.14Z"/><path class="cls-1" d="M9.63,48.11c-.47.14-.87.29-1.14.44-.29.15-.63.38-1,.6.34.3.69.57,1.03.83.62-.26,1.34-.54,2.16-.82-.36-.34-.71-.7-1.05-1.05Z"/><path class="cls-1" d="M5.19,42.15c-.24-.5-.43-1-.59-1.49-.67.33-1.34.66-2.01.97.19.66.41,1.28.67,1.87.44-.32,1.09-.78,1.93-1.35Z"/><path class="cls-1" d="M29.25,53.26c.12.85.4,2.79.54,3.2.18.52-3.05,4.76-8.54,5.21-5.48.45-10.14-2.19-9.65-3.68.49-1.49,1.84-1.81,1.84-1.81,0,0,1.96-.36,3.33.19,0,0,.61.17.03-.3,0,0-.9-.6-2.06-.89-.04,0-2.71.2-1.56-.14-.96.1-1.92.58-2.6,1.86-1.94,3.68,2.57,5.21,3.92,5.8s10.33,2.84,16.06-3.84c0,0,1.93-2.04.39-3.84,0,0-.78-.88-.79-3.28-.3.57-.62,1.07-.93,1.51Z"/><path class="cls-1" d="M14.75,55.19s0,0,0,0c0,0-.61-2.12.27-1.86,0,0,0,0,0,0-.52-.17-1.24-.42-2.08-.79,0,0,0,0,0,0,0,0,1.42,2.16.25,2.51,0,0,0,0,0,0,.53-.05,1.07.02,1.56.14Z"/><path class="cls-1" d="M13.78,52.4s-1.19-.27-.83.14c.84.36,1.56.62,2.08.79.88.25-1.25-.93-1.25-.93Z"/><path class="cls-1" d="M14.75,55.19c-.49-.12-1.02-.19-1.56-.14-1.15.34,1.51.14,1.56.14Z"/><path class="cls-1" d="M27.64,25.06s-.03-.01-.05-.02c-.01.03-.02.05-.03.09.03-.02.05-.05.08-.07Z"/><path class="cls-1" d="M27.09,36.91c1.42,4.13,2.48,5.94,2.57,8.49.61-.02,1.21-.04,1.8-.05-.11-.76-.31-1.54-.65-2.32-2.5-5.8-3.24-11.69-2.26-14.58.46-1.35.72-2.24.86-2.8-.84.59-1.69,1.19-2.54,1.78-.55,2.32-1,5.93.22,9.48Z"/><path class="cls-1" d="M29.17,49.33s-.69,3.43-1.84,4.61c-1.15,1.17-.58,1.85.43,1.04.29-.23.87-.84,1.49-1.71-.03-.24-.05-.4-.05-.4l.99-1.59c0,.16,0,.32,0,.47.71-1.35,1.31-3.03,1.36-4.87-.66-.04-1.3-.06-1.93-.08-.07.74-.21,1.57-.44,2.53Z"/><path class="cls-1" d="M28.2,24.59l-.43-.06-.12.4s-.02.04-.05.12c.02,0,.03.01.05.02.19-.16.37-.32.56-.47Z"/><path class="cls-1" d="M29.24,24.74c-.23.48-.58.87-1.09.58-.17-.1-.34-.18-.51-.26-.03.02-.05.05-.08.07-.14.36-.43,1.18-.69,2.3.85-.6,1.7-1.19,2.54-1.78.16-.64.18-.85.18-.85l-.35-.05Z"/><path class="cls-1" d="M29.61,46.8c.63.02,1.27.05,1.93.08.01-.5-.01-1.01-.08-1.53-.59.01-1.19.03-1.8.05.01.44,0,.9-.05,1.4Z"/><path class="cls-1" d="M28.15,25.32c.51.28.86-.11,1.09-.58l-1.04-.15c-.18.16-.37.32-.56.47.16.08.33.16.51.26Z"/><path class="cls-1" d="M29.2,52.87s.02.15.05.4c.31-.44.63-.95.93-1.51,0-.15,0-.31,0-.47l-.99,1.59Z"/><path class="cls-1" d="M16.55,46.54s-1.35-2.75-1.84-4.09c-.44-1.22-.46.35-.46.35,0,0-.42,3.02,1.6,3.93,0,0,.01,0,.02,0,.25-.04.5-.09.76-.13-.05-.04-.08-.07-.08-.07Z"/><path class="cls-1" d="M16.63,46.61c-.25.04-.5.08-.76.13,1.67.75,1.01.1.76-.13Z"/><path class="cls-1" d="M21.14,47.16s.57.34.43-.17c-.2.02-.39.03-.59.05.05.04.1.08.16.12Z"/><path class="cls-1" d="M21.03,46c-1.2-1.8-1.65-3.42-1.76-4.57-.11-1.16-.93-.75-1.08.1,0,0-.53,2.33,1.73,4.61.37-.05.75-.09,1.12-.13,0,0,0,0,0,0Z"/><path class="cls-1" d="M19.92,46.14c.3.31.66.61,1.07.91.19-.02.39-.04.59-.05-.05-.19-.21-.5-.54-.99-.37.04-.75.09-1.12.13Z"/><path class="cls-1" d="M24.67,44c1.41,1.58.55.21.26-1.04-.29-1.25-.68-2.73-.7-3.57-.03-.83-.59.07-.62.55,0,0-.34,2.49,1.07,4.06Z"/><path class="cls-1" d="M67.18,15.15s-3.68-21.52-17.29-13.26c-13.61,8.26-9.3,27.15-5,35.89,4.3,8.75,11.94,19.02,20.9,12.29l.76-3.82s-11.23,10.06-19.26-8.91c-8.04-18.97.24-32.05,4.75-33.86,4.51-1.81,11.04-.97,13.4,11.66,0,0,.14.9-.59,1.53s-1.18.92-1.34,1.02.68,1.6.68,1.6c0,0,2.31-1.51,2.73-1.93s.54-.91.26-2.22Z"/><path class="cls-1" d="M40.76,17.78s2.19-19.59,17.05-8.37c14.86,11.22,13.94,29.9,11.73,34.97-1.73,3.97-3.75,5.69-3.75,5.69l-1.53-.32-1.48-1.38s3.98-.57,5.3-11.77-6.2-23.73-14.43-27.25-9.23,6.94-9.23,6.94l-3.67,1.48Z"/><path class="cls-1" d="M44.64,33.39s3.66-1.73,6.93-4.84c3.34-3.18,3.33-3.91,4.79-4.27s3.02,1.15,2.4,2.5-4.89,21.54,1.66,22.1c6.31.54-.57,2.4-.57,2.4l-3.23-1.53s-4.91-4.94-1-22.5c0,0,.22-.16-4.15,3.75-4.37,3.91-5.42,4.95-6.09,5.26s-.73-2.86-.73-2.86Z"/><path class="cls-1" d="M42.71,28.89s-4.03,2.01-4.61,2.43-.26,1.09.29.86,2.41-1.37,4.39-2.07-.07-1.22-.07-1.22Z"/><path class="cls-1" d="M44.4,35.01s-3.44,1.32-5.85,1.94-.62,1.08.18.79,5.25-.97,6.12-1.59-.45-1.14-.45-1.14Z"/><path class="cls-1" d="M46.8,40.08s-4.74.68-8.38.94c-3.64.26-1.25.96.16.86,1.41-.1,7.39-.34,8.75-.62s-.52-1.17-.52-1.17Z"/><path class="cls-1" d="M48.99,43.42s-6.01.2-11.25,0-2.5,1.01-.59,1.01,10.87.06,13.09.25-1.25-1.27-1.25-1.27Z"/><path class="cls-1" d="M52.4,7.88s-6.51,4.37-9.58,7.03c0,0,3.96-5.21,7.03-7.03,3.07-1.82,2.55,0,2.55,0Z"/><path class="cls-1" d="M53.76,8.03s-6.88,5.04-10.18,7.66-.3,1.66.02,1.09,10.33-7.26,11.53-7.89-.86-1.23-1.37-.86Z"/><path class="cls-1" d="M56.98,9.36s-4.63,4.1-7.36,5.91c-2.73,1.81-.58,1.64.72.72s5.19-3.79,7.7-5.42l-.32-.69-.74-.52Z"/><path class="cls-1" d="M60.17,13.31s-3.2,2.53-6.17,4.48c-2.96,1.94-.29,1.46.54.87s4.2-2.81,6.46-3.99v-1.08l-.83-.28Z"/><path class="cls-1" d="M63.6,17.83s-2.26,1.47-5.78,3.22c-3.52,1.75-.56,1.39.5.93s5.1-2.24,6.04-2.78-.25-1.68-.75-1.36Z"/><path class="cls-1" d="M51.84,2.79l-1.84,2.38s-.7.89.42.29c0,0,2.42-2.29,3.1-2.89s-1.22-.21-1.22-.21l-.45.43Z"/><path class="cls-1" d="M61.74,5.3s-2.24,2.34-2.89,2.92-.31.89.36.49,2.81-2.21,3.62-2.19-1.09-1.22-1.09-1.22Z"/><path class="cls-1" d="M58.65,2.54s-2.6,2.56-3.09,3.09-.34.95.43.48,3.99-2.76,3.99-2.76c0,0-.28-1.18-1.33-.81Z"/><path class="cls-1" d="M55.37,2.1s-2.27,2.66-2.51,2.97-.13.81.44.42,3.15-2.84,3.62-3.12-1.11-.79-1.55-.26Z"/><path class="cls-1" d="M64.43,10.32s-1.82,1.27-2.16,1.55-.52.88.34.55,2.45-1,2.45-1c0,0,.47-.9-.62-1.1Z"/><path class="cls-1" d="M66.35,23.65s-5.31,2.36-6.72,3.15-1.08,1.27.35.79,5.96-2.3,6.89-2.48.46-1.45.46-1.45h-.98Z"/><path class="cls-1" d="M68.17,30.23s-4.36,1.33-6.19,1.88-1.15,1.32.31.85c1.46-.47,5.05-.94,6.3-1.29s.06-1.58-.42-1.44Z"/><path class="cls-1" d="M68.9,36.42s-4.89.72-6.4,1.04-1.56.99,0,.89,5.16-.31,6.4-.26,0-1.66,0-1.66Z"/></g></svg>