<svg xmlns="http://www.w3.org/2000/svg" viewBox="102.687 119.167 396.001 277.404" width="396" height="277.4">
<path fill-rule="nonzero" fill="#212121" d="M 261.203125 317.3125 L 261.203125 198.425781 L 363.890625 257.722656 Z M 490.296875 162.558594 C 485.667969 145.492188 472.652344 132.183594 455.296875 127.554688 C 424.636719 119.167969 300.542969 119.167969 300.542969 119.167969 C 300.542969 119.167969 176.738281 119.167969 146.078125 127.554688 C 129.011719 132.183594 115.707031 145.492188 110.789062 162.558594 C 102.6875 193.21875 102.6875 257.722656 102.6875 257.722656 C 102.6875 257.722656 102.6875 322.226562 110.789062 353.179688 C 115.707031 369.957031 129.011719 383.550781 146.078125 388.179688 C 176.738281 396.570312 300.542969 396.570312 300.542969 396.570312 C 300.542969 396.570312 424.636719 396.570312 455.296875 388.179688 C 472.652344 383.550781 485.667969 369.957031 490.296875 353.179688 C 498.6875 322.226562 498.6875 257.722656 498.6875 257.722656 C 498.6875 257.722656 498.6875 193.21875 490.296875 162.558594 "/>
</svg>
